<?xml version="1.0" encoding="UTF-8"?>
<svg id="svg3409" xmlns="http://www.w3.org/2000/svg" viewBox="0 0 999.2 776">
  <defs>
    <style>
      .cls-1 {
        fill: #eb001b;
      }

      .cls-2 {
        fill: #ff5a00;
      }

      .cls-3 {
        fill: #f79e1b;
      }
    </style>
  </defs>
  <path d="M272.15,663.87v-36.78c0-14.07-8.57-23.28-23.28-23.28-7.36,0-15.35,2.43-20.85,10.43-4.28-6.71-10.43-10.43-19.64-10.43-6.14,0-12.28,1.86-17.14,8.57v-7.36h-12.85v58.84h12.85v-32.49c0-10.43,5.5-15.35,14.07-15.35s12.85,5.5,12.85,15.35v32.49h12.85v-32.49c0-10.43,6.14-15.35,14.07-15.35,8.57,0,12.85,5.5,12.85,15.35v32.49h14.21ZM462.82,605.03h-20.85v-17.78h-12.85v17.78h-11.64v11.64h11.64v26.99c0,13.5,5.5,21.42,20.21,21.42,5.5,0,11.64-1.86,15.93-4.28l-3.71-11.07c-3.71,2.43-8,3.07-11.07,3.07-6.14,0-8.57-3.71-8.57-9.78v-26.35h20.85v-11.64h.07ZM571.94,603.74c-7.36,0-12.28,3.71-15.35,8.57v-7.36h-12.85v58.84h12.85v-33.14c0-9.78,4.28-15.35,12.28-15.35,2.43,0,5.5.64,8,1.21l3.71-12.28c-2.57-.5-6.21-.5-8.64-.5h0ZM407.05,609.88c-6.14-4.28-14.71-6.14-23.92-6.14-14.71,0-24.49,7.36-24.49,19,0,9.78,7.36,15.35,20.21,17.14l6.14.64c6.71,1.21,10.43,3.07,10.43,6.14,0,4.28-4.93,7.36-13.5,7.36s-15.35-3.07-19.64-6.14l-6.14,9.78c6.71,4.93,15.93,7.36,25.14,7.36,17.14,0,26.99-8,26.99-19,0-10.43-8-15.93-20.21-17.78l-6.14-.64c-5.5-.64-9.78-1.86-9.78-5.5,0-4.28,4.28-6.71,11.07-6.71,7.36,0,14.71,3.07,18.42,4.93l5.43-10.43h0ZM749.05,603.74c-7.36,0-12.28,3.71-15.35,8.57v-7.36h-12.85v58.84h12.85v-33.14c0-9.78,4.28-15.35,12.28-15.35,2.43,0,5.5.64,8,1.21l3.71-12.14c-2.5-.64-6.14-.64-8.64-.64h0ZM584.8,634.45c0,17.78,12.28,30.64,31.28,30.64,8.57,0,14.71-1.86,20.85-6.71l-6.14-10.43c-4.93,3.71-9.78,5.5-15.35,5.5-10.43,0-17.78-7.36-17.78-19s7.36-18.42,17.78-19c5.5,0,10.43,1.86,15.35,5.5l6.14-10.43c-6.14-4.93-12.28-6.71-20.85-6.71-19-.07-31.28,12.85-31.28,30.64h0ZM703.7,634.45v-29.42h-12.85v7.36c-4.28-5.5-10.43-8.57-18.42-8.57-16.57,0-29.42,12.85-29.42,30.64s12.85,30.64,29.42,30.64c8.57,0,14.71-3.07,18.42-8.57v7.36h12.85v-29.42h0ZM656.5,634.45c0-10.43,6.71-19,17.78-19,10.43,0,17.78,8,17.78,19,0,10.43-7.36,19-17.78,19-11-.64-17.78-8.64-17.78-19h0ZM502.67,603.74c-17.14,0-29.42,12.28-29.42,30.64s12.28,30.64,30.07,30.64c8.57,0,17.14-2.43,23.92-8l-6.14-9.21c-4.93,3.71-11.07,6.14-17.14,6.14-8,0-15.93-3.71-17.78-14.07h43.49v-4.93c.57-18.92-10.5-31.21-26.99-31.21h0ZM502.67,614.81c8,0,13.5,4.93,14.71,14.07h-30.64c1.21-7.93,6.71-14.07,15.93-14.07h0ZM822.03,634.45v-52.7h-12.85v30.64c-4.28-5.5-10.43-8.57-18.42-8.57-16.57,0-29.42,12.85-29.42,30.64s12.85,30.64,29.42,30.64c8.57,0,14.71-3.07,18.42-8.57v7.36h12.85v-29.42h0ZM774.83,634.45c0-10.43,6.71-19,17.78-19,10.43,0,17.78,8,17.78,19,0,10.43-7.36,19-17.78,19-11.07-.64-17.78-8.64-17.78-19h0ZM344.49,634.45v-29.42h-12.85v7.36c-4.28-5.5-10.43-8.57-18.42-8.57-16.57,0-29.42,12.85-29.42,30.64s12.85,30.64,29.42,30.64c8.57,0,14.71-3.07,18.42-8.57v7.36h12.85v-29.42h0ZM296.71,634.45c0-10.43,6.71-19,17.78-19,10.43,0,17.78,8,17.78,19,0,10.43-7.36,19-17.78,19-11.07-.64-17.78-8.64-17.78-19Z"/>
  <g>
    <rect id="rect19" class="cls-2" x="402.76" y="158.12" width="193.1" height="346.93"/>
    <path class="cls-1" d="M415.62,331.58c0-70.49,33.14-133.04,83.98-173.46-37.42-29.42-84.63-47.2-136.11-47.2-121.97,0-220.67,98.69-220.67,220.67s98.69,220.67,220.67,220.67c51.49,0,98.69-17.78,136.11-47.2-50.92-39.85-83.98-102.98-83.98-173.46Z"/>
    <path id="path22" class="cls-3" d="M856.38,331.58c0,121.97-98.69,220.67-220.67,220.67-51.49,0-98.69-17.78-136.11-47.2,51.49-40.49,83.98-102.98,83.98-173.46s-33.14-133.04-83.98-173.46c37.35-29.42,84.55-47.2,136.04-47.2,122.05,0,220.74,99.34,220.74,220.67Z"/>
  </g>
</svg>